<?xml version="1.0" encoding="utf-8"?>
<!-- Generator: Adobe Illustrator 19.2.1, SVG Export Plug-In . SVG Version: 6.00 Build 0)  -->
<svg version="1.1" id="Layer_1" xmlns="http://www.w3.org/2000/svg" xmlns:xlink="http://www.w3.org/1999/xlink" x="0px" y="0px"
	 viewBox="0 0 595.3 841.9" style="enable-background:new 0 0 595.3 841.9;" xml:space="preserve">
<style type="text/css">
	.st0{opacity:0.5;fill:#687128;}
</style>
<path class="st0" d="M583.2,566.2c-1.8-10.3-31-40.4-31-40.4s-16.2-14.8-22-21.5c-5.8-6.7-63.5-64.9-64.6-66.7
	c-1.1-1.8-4.9-7.2-7.6-11.2c-2.7-4,0,0-6.7-3.4c-6.7-3.4-86.6-75-86.6-75c-1.8-2.7-15.3-65.1-15.9-67.8c-0.6-2.7,2.7-9.6,1.8-10.8
	c-0.9-1.2-5.1-15-6-19.8c-0.9-4.8-6-34-5.1-39.7c0.9-5.7,1.8-18.3,1.5-23.3c-0.3-5.1-3.9-8.7-3.9-8.7s-3,3,0.3-5.7
	c3.3-8.7-7.2-10.8-10.8-19.5c-3.6-8.7-0.3-12.6-0.3-12.6l-2.7,1.5l1.2-5.4c0,0-15,12.6-17.1,24.2c-2.1,11.7,1.8,10.8,0.9,17.7
	c-0.9,6.9,3,6.9,1.6,8.4c-1.3,1.5,1.4,9.9,2.5,13.8c1.2,3.9,6.9,17.7,7.5,20.6c0.6,3,3,30.4,2.7,33.4c-0.3,3-0.9,10.8-0.9,10.8
	s3,0.6,3.6,3.9c0.6,3.3,6,45.2,6,45.2c-5.7-4.5-38.2-36.4-39.4-40.4c-1.1-4-2.5-3.4-2.5-3.4c-7.4-3.1-17.7-18-19.5-19.8
	c-1.8-1.8-7.4-8.1-7.9-9c-0.4-0.9-22.9-15.3-22.9-15.3s0.9-1.6,1.3-3.8c0.4-2.2-8.5-11.4-13.5-13c-4.9-1.6-3.6-3.8-3.4-6.7
	c0.2-2.9-0.4-7.9-0.4-7.9s-4.3-8.3-6.5-12.3c-2.2-4-3.6-9.4-5.2-15.9s-2.7-6.3-2.7-6.3l-1.8,2l-2.5-5.8c0,0,0.2,8.1-2.9,11.9
	c-3.1,3.8-3.1,9-4,10.3c-0.9,1.4-0.2,13.7-0.2,16.4c0,2.7,2.7,5.2,2.7,5.2l-3.4-0.7c0,0,6.3,6.1,5.6,7.9c-0.7,1.8-1.1,5.4,2,11.4
	c3.1,6.1,20.2,20.7,20.9,21.3c0.7,0.7,4.3,1.3,4.9,1.3c0.7,0,3.6-0.4,4.3-0.2c0.7,0.2,12.6,11.2,15.7,14.6
	c3.1,3.4,11.9,11.2,13,11.9c1.1,0.7-0.2,2.7-1.6,3.1c-1.3,0.4,0,0-0.2,1.6c-0.2,1.6,6.3,4,8.8,5.8c2.5,1.8,1.8,6.3,1.8,8.1
	c0,1.8,6.1,1.4,7.6,2.5c1.6,1.1,4.9,6.3,8.5,9.2c3.6,2.9,25.6,31.2,26.5,33.2c0.9,2,4,4.9,7,6.1c2.9,1.1,17.5,16.4,17.5,16.4
	c-0.2,0.9,3.1,15.5,3.1,15.5s-9.7-8.8-10.3-10.6c-0.7-1.8-14.1-18-17.7-19.7c-3.6-1.8-10.8-10.3-13.7-13.2
	c-2.9-2.9-25.7-28.3-25.7-28.3c-0.1-3.7-4-5.5-4-5.5c-11.8-7.8-34-32-35.3-33.5c-1.3-1.5,0-2.1-3.4-3.6c-3.4-1.5-10.5-10-11.4-10.8
	c-0.9-0.7-2.8-4.5-3.9-5.7c-1-1.2-16.3-13-16.3-13s1-0.9-0.3-2.1c-1.3-1.2-18.9-10.2-18.9-10.2c-8.2-15.1-20.3-13.6-20.3-13.6
	c-2.7-5.5-7.8-5.8-12.1-7.5c-4.3-1.6-8.7-2.1-9.4-2.7c-0.7-0.6-2.2-0.1-1.8,1.8c0.4,1.9,0.7,2.1,8.1,13.3
	c7.3,11.2,12.1,11.4,19.1,15.9c7,4.5,12.6,4.9,13,5.6c0.5,0.7,5.4,4.7,6.3,5.8c0.9,1.1,3.7-0.7,3.7-0.7s11.1,8.5,12.9,10.1
	c1.8,1.6,9,12.1,9,12.1s3.1,4.5,4.5,7c1.4,2.5,2-0.4,2.7,0c0.7,0.4,7.9,6.1,12.1,10.8c4.3,4.7,20.4,23.3,22.7,26
	c2.2,2.7,20.9,20.9,25.4,25.4c4.5,4.5,22.7,25.4,22.7,25.4s-21.8-19.8-26.7-26c-4.9-6.3-24.5-20.9-26.7-24
	c-2.2-3.1-0.2-5.6-11.4-12.6c-11.2-7-9.2-9.9-9.2-9.9c0.4-2.7-11.4-8.8-11.4-8.8s-8.6-0.2-12.4-11c-3.8-10.8-17.1-15.7-17.1-15.7
	c-4.9-9.9-10.5-9.7-14.4-11c-3.8-1.3-7.2-3.8-11.2-8.5c-4-4.7-12.3-2.7-13-3.6c-0.7-0.9-3.1-1.3-4.3,0c-1.1,1.3,4.7,6.7,2.5,10.1
	c-2.2,3.4,4.7,10.3,6.5,12.1c1.8,1.8,9.2,14.1,9.9,15c0.7,0.9,15.3,8.1,14.1,10.1c-1.1,2,8.3,9.6,11.2,10.5
	c2.9,0.9,3.8,10.1,3.8,10.1s2.5,0.2,3.5,0c1-0.2,5,4,5.7,5.2c0.7,1.1,16.4,19.1,15.1,22.4c-1.3,3.4,4.9,7.4,6.2,7.6
	c1.4,0.2,4.3,5.2,6.1,6.7c1.8,1.6,9.9,17.1,9.7,19.5c-0.2,2.5,1.1,3.6,4.3,4.3c3.1,0.7,11.2,11,13,13c1.8,2,34.8,41.1,34.8,41.1
	s-26-13.9-28.3-16.6c-2.2-2.7-7.4-2-7.4-2s-15.7-6.1-19.5-9.4c-3.8-3.4-22-26.5-24.5-28.5c-2.5-2-14.1-15.6-14.1-15.6
	c0.9-1.2-0.4-4.9-0.4-4.9l-11.5-11.5l-4.4,0.1c-6.1-19.4-24.2-25.9-24.2-25.9c-5.4-9-17.2-9.3-17.2-9.3c-10.6-6.9-20.2-5.1-20.2-5.1
	l0.3,5.5c2.4,9.7,28.6,32.8,28.6,32.8c-0.3,5.2,9.3,11.4,13.8,12.7s14.8,14.1,17.1,16.6c2.2,2.5,0.7,3.1,0.7,3.1
	c-4.2,0-12-8.4-12-8.4l-23.8-13.6l-1.6-3.4c-11.4-3.6-29.9-20-29.9-20c-1.5-14.9-20.9-20.8-20.9-20.8
	c-19.2-17.1-32.9-13.5-32.9-13.5c-0.3,1.7,1,3.8,1,3.8c-8.6-3.1-10.3,3.3-10.3,3.3c2,18.5,18.3,27,18.3,27s11.4,12.2,14.5,14.5
	c3.1,2.2,5.2,0,5.2,0c4.3,2.2,19.5,26.5,19.5,26.5s1.5,0.6,4,1c2.5,0.4,20.2,22.3,20.2,22.3l-10.5-5.5c-1.9-6.6-5.8-6.3-5.8-6.3
	c-2.8-7.3-15.3-14.4-15.3-14.4c-13.5-18-31.3-18.3-31.3-18.3c-1.8-2.4-5.8-2.9-5.8-2.9c-4.5,12.8,14.7,31,14.7,31
	c0.9,6.3,15.3,15.4,15.3,15.4c2.2,8.1,16.6,13.2,18,13c1.3-0.2,3.1-1.4,3.1-1.4s24.2,17.3,24.5,18.9c0.2,1.6,7,4.9,10.1,6.1
	c3.1,1.1,38.1,21.8,38.1,21.8l0.7,3.1c0,0-30.7-16.2-35.5-18.3c-4.8-2.1-10.8-6.4-10.8-6.4c-9-9.6-21.8-7.5-21.8-7.5l5.4,3
	l-51.7-13.8c-4.7-8.1-9.8-6.4-9.8-6.4c-6.4-15-19.1-12.2-19.1-12.2c1-0.1,8.2,7.3,8.2,7.3l-9.2-7.2c0.7-10-9.9-17.5-9.9-17.5
	c-1.5-7.1-7.9-13-7.9-13l-1.1-4.9c0,0,1.6-2.9-2.7-2c-4.3,0.9-4,9.2-4,9.2c-6.1,6.3-0.5,13.9-0.5,13.9c-4,7.8,3.2,13.9,3.9,15.5
	c0.7,1.6,3.1,1.1,4.2,1.8c1,0.7,3,3.8,3,3.8l-2.9-0.9c-1.1,4.5,9.2,10.1,9.2,10.1c-0.2,1.1,5.2,5.4,6.1,5.6c0.9,0.2,3.8,2.2,3.8,2.2
	c3.8,6.1,16.5,6.7,16.5,6.7v-2.7c0,0,20.7,6.6,21.8,7.2c1.2,0.6,4.2,4.2,13.2,3.9c9-0.3,61.9,26,71.5,29c9.6,3,32.6,20.9,38.6,24.2
	c6,3.3,76.9,56.6,76.9,56.6s10.5,14.1,15,17.4c4.5,3.3,84.8,71.4,88.6,75.4c3.9,4,1.3,2,0.2,3.8c-1.1,1.8,3.4,1.6,4.5,2.2
	c1.1,0.7,3.4,3.1,4.5,5.4c1.1,2.2,12.1,9.4,12.1,9.4l1.6,9.4l8.4,30.7c0.3,1.2,0.4,2.5,0.4,3.7v9.5c0,1.1,0.2,2.1,0.6,3.1l3.5,8.2
	c1.4,3.3,0.1,10.2,3.7,9.7c9.7-1.5,30.1-9.4,31.9-11.5c2.2-2.7-14.4-58.6-14.4-58.6s3.1-5.4,0.9-7.2c-2.2-1.8-8.1-18.4-8.1-18.4
	l1.8-0.5c1.8-0.4,56.4,74.8,56.4,74.8s25.4,28.4,29.9,25.2c4.5-3.1,18-24.2,18-24.2s-43.7-55.1-42.8-54.5c0.9,0.6,10.2,7.5,11.4,6.6
	c1.2-0.9,22.4-30.5,21.8-32c-0.6-1.5-17.1-13.8-18.3-15.3c-1.2-1.5,12.6-11.1,12.6-11.1l-10.2-10.5l37.1,24.2c0,0,9,8.7,12.3,7.5
	c3.3-1.2,4.2-9.3,4.2-9.3s3.6,2.4,6,0.6C575.9,585.5,585,576.5,583.2,566.2 M201.6,405.5c-8.5-5.4-26-27.8-26-27.8l26,9.4
	c0,0-0.4,4.9,7.6,6.7c8.1,1.8,31,18.4,31,18.4c3.6,7.6,24.2,25.1,24.2,25.1C256.9,433.3,210.2,410.9,201.6,405.5 M367.3,549.6
	c-5.4-4.5-66.4-59.3-66.4-59.3c6.3,2.7,55.2,34.1,59.7,38.2c4.5,4,26.5,18,26.5,18l4.9,13C392,559.5,372.7,554.1,367.3,549.6"/>
</svg>
